<?xml version="1.0" encoding="utf-8"?>
<!-- Generator: Adobe Illustrator 24.3.0, SVG Export Plug-In . SVG Version: 6.00 Build 0)  -->
<svg version="1.1" id="Layer_1" xmlns="http://www.w3.org/2000/svg" xmlns:xlink="http://www.w3.org/1999/xlink" x="0px" y="0px"
	 viewBox="0 0 1080 1080" style="enable-background:new 0 0 1080 1080;" xml:space="preserve">
<style type="text/css">
	.st0{fill:#221E1F;}
	.st1{fill:#3DA246;}
	.st2{fill:#211D1E;}
	.st3{fill:#010101;}
	.st4{fill:#020202;}
</style>
<g>
	<path class="st0" d="M663.42,687.63c-1.7,2.96-1.16,5.35-1.17,7.63c-0.05,18.54-0.04,37.08-0.04,55.62c0,3.95-0.27,7.52-5.65,7.67
		c-4.53,0.13-7.16-1.4-6.99-6.3c0.04-1.17-0.03-2.34-0.03-3.51c0-24-0.05-48,0.05-72.01c0.01-3.29-1.28-7.34,3.18-9.14
		c4.58-1.84,11.47-0.21,14.31,3.6c9,12.03,17.88,24.15,26.79,36.24c5.32,7.23,10.6,14.49,15.94,21.7c1.1,1.49,1.94,3.35,3.97,3.99
		c1.87-1.98,1.2-4.24,1.21-6.28c0.1-19.12,0.39-38.25,0.12-57.37c-0.84-60.65-22.02-113.45-63.69-157.26
		c-28.27-29.72-63.35-47.53-104.88-49.65c-35.66-1.81-67.68,9.68-96.17,30.79c-34,25.19-56.2,59.09-70.96,98.26
		c-8.11,21.52-12.51,43.86-14.17,66.76c-0.54,7.46,0.51,8.66,7.83,8.75c7.41,0.08,14.85-0.3,22.23,0.21
		c10.06,0.7,19.77,3.1,23.75,13.89c4.01,10.85,2.78,21.19-5.85,29.73c-2.32,2.3-2.74,3.87,0.25,5.94c3.41,2.36,4.72,6.07,5.34,10.05
		c0.95,6.19,1.16,12.43,1.21,18.68c0.02,2.73-0.14,5.61,1.44,7.96c2.71,4.02,1.01,4.92-2.96,5.06c-8.01,0.28-9.65-1.09-10.17-9.07
		c-0.38-5.84-0.62-11.69-1.21-17.51c-0.69-6.92-4.15-10.7-11.05-11.6c-8.53-1.11-17.14-0.5-25.72-0.37
		c-4.11,0.06-5.18,2.8-5.19,6.32c-0.03,8.39-0.12,16.78-0.06,25.17c0.03,4.42-1.44,7-6.38,7.04c-4.87,0.04-6.65-2.34-6.58-6.84
		c0.64-40.35-2.19-80.79,3.34-121c3.68-26.76,11.88-52.09,24.71-75.84c4.84-8.96,8.93-18.19,12.67-27.63
		c22.7-57.33,45.46-114.63,68.18-171.95c7.25-18.29,17.6-34.37,33.59-46.29c32.89-24.53,77.01-19.46,103.84,11.78
		c8.86,10.31,15.71,21.75,20.71,34.42c24.43,61.89,48.87,123.78,73.66,185.52c4.34,10.82,10.75,20.8,15.51,31.48
		c13.04,29.3,18.86,60.29,19.49,92.18c0.57,28.87,0.19,57.76,0.16,86.64c0,2.99,0.85,6.88-3.21,7.88
		c-4.15,1.03-8.65,1.52-11.83-2.55c-2.76-3.53-5.43-7.15-8.02-10.81c-13.06-18.48-26.99-36.35-39.28-55.38
		C665.15,689.45,664.44,688.81,663.42,687.63z M473.08,352.47c5.47-2.2,9.8-6.27,14.84-9.17c1.98-1.14,2.87-3.16,3.18-5.35
		c0.66-4.61,1.82-9.17,1.54-13.89l-0.11-0.11c-9.24,7.5-15.43,17.2-20.07,28C472.18,352.71,472.29,353.01,473.08,352.47z
		 M608.51,354.43l-0.05,0.05c-3.58-12.25-11.35-21.58-20.5-30c0,9.13-0.22,18.08,9.99,22.71
		C601.78,348.91,605.01,351.97,608.51,354.43z M630.59,415.52l0.36-0.05l0.05-0.36c-1.83-9.46-6.66-17.88-9.35-27.01
		c-3.97-13.49-14.03-21.63-24.57-29.48c-1.04-0.77-2.27-2.04-3.65-1.1c-1.34,0.91-0.67,2.5-0.46,3.8
		c1.73,10.58,3.5,21.15,5.25,31.73c0.44,2.65,1.61,4.78,4.17,5.95C612.35,403.54,621.34,409.75,630.59,415.52z M416.59,502.15
		c15.22-14.6,31.22-28.17,50.09-37.94c2.83-1.47,4.14-3.94,4.64-7.01c2.22-13.64,4.49-27.28,6.71-40.92
		c0.27-1.68,1.01-3.71-0.62-4.94c-1.96-1.47-3.67,0.3-5.31,1.16c-9.68,5.12-18.47,11.55-27,18.37c-2.99,2.39-4.83,5.51-6.16,9.05
		c-4.3,11.49-8.82,22.89-12.98,34.43c-3.29,9.14-7.75,17.87-9.7,27.49l0.03,0.29L416.59,502.15z M663.1,501.21
		c0.25,0.08,0.49,0.16,0.74,0.23c-0.03-0.27-0.05-0.53-0.08-0.8c-7.1-21.49-15.77-42.39-23.72-63.56c-0.85-2.25-2.45-3.98-4.26-5.49
		c-8.83-7.42-18.16-14.13-28.39-19.5c-1.49-0.78-3.11-2.17-4.82-0.76c-1.41,1.16-0.74,2.91-0.5,4.41c2.21,13.67,4.51,27.32,6.65,41
		c0.64,4.06,2.85,6.54,6.38,8.43c12.08,6.46,23.16,14.38,33.62,23.24C653.62,492.57,657.54,497.82,663.1,501.21z M544.2,420.43
		c0,6.43,0.02,12.85-0.01,19.28c-0.02,3.71,1.48,5.87,5.45,6.03c15.52,0.65,30.39,4.28,44.84,9.87c4.77,1.85,6.1,0.69,5.28-4.5
		c-2.15-13.65-4.5-27.28-6.76-40.91c-0.51-3.08-1.9-5.38-4.99-6.61c-11.67-4.62-23.7-7.53-36.27-8.25
		c-5.63-0.32-7.76,2.13-7.57,7.56C544.37,408.75,544.22,414.59,544.2,420.43z M535.82,421.12c0-6.05,0.08-12.1-0.02-18.15
		c-0.11-6.71-1.18-7.74-8.05-7.53c-11.64,0.37-22.67,3.6-33.61,7.31c-4.46,1.51-6.57,4.22-7.27,8.79c-2,13.12-4.3,26.19-6.4,39.29
		c-0.94,5.85,0.15,6.79,5.92,4.55c14.12-5.49,28.65-8.99,43.82-9.63c3.89-0.16,5.64-2.09,5.62-5.9
		C535.81,433.61,535.83,427.37,535.82,421.12z M544.25,362.57c0,5.45,0.02,10.91-0.01,16.36c-0.02,3.68,1.5,5.87,5.42,6.15
		c11.7,0.85,23.15,3.03,34.3,6.74c4.2,1.4,5.96-0.09,5.24-4.5c-1.8-10.95-3.58-21.91-5.38-32.87c-0.36-2.22-1.28-4.13-3.34-5.21
		c-9.41-4.95-19.32-8.23-30.01-8.84c-4.11-0.23-6.22,1.63-6.21,5.81C544.26,351.66,544.26,357.12,544.25,362.57z M535.8,362.85
		c0.02,0,0.04,0,0.06,0c0-5.26-0.11-10.52,0.03-15.77c0.14-5.08-2.22-7.07-7.15-6.65c-10.04,0.87-19.42,3.92-28.39,8.38
		c-2.5,1.24-3.63,3.39-4.06,6.04c-1.75,10.76-3.47,21.53-5.29,32.28c-0.79,4.69,0.9,6.4,5.41,4.76c10.9-3.95,22.21-5.79,33.69-6.77
		c4.19-0.36,5.77-2.54,5.72-6.5C535.74,373.37,535.8,368.11,535.8,362.85z M382.84,677.91c0-0.04,0-0.08,0-0.12
		c-4.08,0-8.16-0.01-12.24,0c-3.5,0.01-5.51,1.63-5.53,5.27c-0.02,7-0.03,13.99,0.02,20.99c0.02,2.9,1.32,5.02,4.41,5.11
		c8.93,0.27,17.92,0.94,26.78-0.33c8.72-1.25,12.64-7.45,12.12-17.63c-0.41-8.09-4.69-12.5-13.32-13.23
		C391.02,677.63,386.92,677.91,382.84,677.91z M448.69,414.49c0.54,0.36,1.07,0.71,1.61,1.07c8.92-6.64,18.55-12.04,28.42-17.03
		c2.53-1.28,3.02-3.88,3.44-6.43c1.59-9.8,3.23-19.59,4.76-29.39c0.26-1.66,1.44-3.83-0.14-4.97c-2.01-1.46-3.51,0.83-4.98,1.87
		c-11.55,8.16-20.77,17.97-24.71,32.17C454.95,399.53,451.54,406.93,448.69,414.49z M551.06,302.99c-4.41-0.56-6.76,1.25-6.76,5.78
		c-0.01,4.87-0.05,9.74,0,14.61c0.03,2.85,1.18,4.96,4.28,5.32c9.33,1.07,18.44,3,27.14,6.66c1.69,0.71,4.28,0.88,4.12-1.45
		c-0.47-6.89,0.52-14.81-4.74-19.91C568.63,307.73,560.17,304.25,551.06,302.99z M535.84,316.29c0-14.32-1.91-15.62-14.81-11.42
		c-12.64,4.12-20.97,11.18-20.85,25.7c0.04,5.3,0.43,6.24,5.34,4.36c7.13-2.74,14.41-4.73,21.98-5.75c8.22-1.1,8.27-1.24,8.34-9.38
		C535.85,318.63,535.84,317.46,535.84,316.29z"/>
	<path class="st1" d="M536.86,607.31c0-0.98-0.11-1.97,0.02-2.93c1.09-8.06-0.46-13.48-9.23-17.57
		c-10.95-5.12-14.16-16.49-15.01-28.08c-0.7-9.66,0.97-19.08,3.47-28.34c4.84-18.01,12.7-34.77,21.49-51.13
		c1.26-2.36,2.33-4.35,4.57-0.62c12.74,21.19,23.85,43.01,27.04,67.99c2.25,17.63-2.84,35.75-22.31,43.79
		c-2.11,0.87-2.93,2.16-2.91,4.42c0.08,8.39,0.12,16.79-0.02,25.18c-0.05,3.21,1.05,3.84,4.16,3.48c5.64-0.64,8.58-2.05,8.91-9.03
		c0.8-16.6,9.67-28.95,23.82-37.35c16.14-9.59,34.1-11.74,52.42-11.92c12.95-0.13,12.95-0.06,8.41,11.83
		c-5.93,15.55-12.92,30.56-22.94,43.95c-2.91,3.89-6.12,7.64-9.68,10.93c-15.01,13.89-30.01,13.98-45.33,0.55
		c-3.78-3.31-14.98-3.69-18.86-0.71c-1.49,1.14-1.4,2.69-1.42,4.23c-0.05,4.68-0.05,9.37-0.04,14.05c0.01,2.45,0.09,4.73-3.52,4.64
		c-3.33-0.09-3.05-2.27-3.05-4.43c-0.01-4.68-0.16-9.37,0.04-14.05c0.13-3.08-1.1-4.45-4.02-5.36c-6.39-1.99-11.34-2.39-17.01,3.41
		c-11.78,12.03-26.73,12.17-40.22,2.03c-7.28-5.47-12.84-12.5-17.77-20.05c-9.13-13.96-15.68-29.17-21.68-44.66
		c-1.19-3.08-1.08-4.72,2.77-4.84c19.5-0.6,38.66,0.96,56.58,9.48c17.26,8.21,27.06,21.8,28.54,41.09
		c0.28,3.64,8.13,8.54,11.31,7.07c1.5-0.69,1.41-2.22,1.42-3.57c0.03-4.49,0.01-8.98,0.01-13.47
		C536.84,607.31,536.85,607.31,536.86,607.31z"/>
	<path class="st2" d="M540.2,769.1c59.87,0,119.73-0.01,179.6,0.01c8.53,0,9.37,0.91,9.19,9.38c-0.15,7.19-1.01,7.9-10.23,7.91
		c-112.52,0.01-225.03,0.01-337.55,0.01c-7.41,0-14.82,0.05-22.23-0.03c-7.24-0.08-8-0.99-7.96-8.86c0.04-7.42,0.81-8.38,7.84-8.39
		c31.4-0.05,62.79-0.03,94.19-0.03C482.08,769.1,511.14,769.1,540.2,769.1z"/>
	<path class="st0" d="M493.87,667.19c3.54-0.46,5.99,1.49,7.74,5.07c5.13,10.52,10.41,20.96,15.68,31.41
		c0.68,1.34,1.03,3.38,2.81,3.44c1.86,0.06,2.12-2.04,2.82-3.35c1.19-2.23,1.98-4.72,3.38-6.8c5.28-7.84,6.38-15.51,0.44-23.65
		c-2.66-3.64-1.65-6.55,3.42-6.04c5.25,0.53,10.35,1.2,15.7,0.13c4.01-0.8,5.19,1.78,3.48,5.45c-0.66,1.41-1.18,2.92-2.02,4.22
		c-2.79,4.26-2.42,8.22,0.15,12.54c2.78,4.68,4.94,9.73,7.44,14.59c0.6,1.16,0.91,2.91,2.53,2.93c1.63,0.01,1.97-1.72,2.53-2.89
		c4.84-10.01,9.62-20.05,14.44-30.06c0.76-1.58,1.44-3.25,2.52-4.6c2.45-3.08,6.11-3.17,9.05-1.72c3.35,1.66,0.75,4.55-0.19,6.58
		c-6.05,13.1-12.12,26.2-18.55,39.12c-3.4,6.83-5.05,13.78-4.62,21.4c0.33,5.83,0.06,11.7,0,17.55c-0.03,3.22-0.9,5.83-4.84,5.96
		c-4.06,0.13-5.57-2.15-5.6-5.84c-0.04-5.07-0.32-10.16-0.01-15.21c0.51-8.23-0.93-15.86-5.27-22.95c-1.72-2.82-2.82-6.01-4.47-8.88
		c-1.29-2.24-1.26-6.27-4.45-6.14c-2.57,0.1-2.72,3.88-4.02,5.98c-7.72,12.41-10.04,25.96-8.67,40.33c0.18,1.93,0.01,3.9,0,5.85
		c-0.02,3.56-0.45,6.8-5.14,6.86c-4.6,0.06-5.39-2.95-5.39-6.64c0-6.63-0.15-13.27,0.01-19.89c0.13-5.01-0.96-9.55-3.24-14.04
		c-7.52-14.78-14.84-29.65-22.14-44.54C486.92,668.3,487.72,667.18,493.87,667.19z"/>
	<path class="st0" d="M487.74,758.44c-2.66,0.07-4.27-1.97-5.11-4.82c-1.38-4.67-2.78-9.34-3.99-14.06
		c-1.02-4.01-3.38-5.83-7.55-5.73c-6.04,0.14-12.08,0.12-18.12,0.02c-3.92-0.07-6.15,1.7-7.14,5.46c-1.04,3.96-2.32,7.85-3.5,11.77
		c-0.34,1.12-0.67,2.24-1.05,3.35c-1.49,4.35-5.01,4.72-8.59,3.79c-4.06-1.05-2.46-4.32-1.74-6.77
		c5.13-17.39,10.38-34.74,15.61-52.09c2.64-8.77,5.36-17.52,7.95-26.31c1.12-3.82,3.15-5.95,7.47-5.88
		c4.08,0.07,5.93,2.17,6.99,5.72c7.84,26.34,15.72,52.67,23.61,79C493.72,755.75,493.37,758.54,487.74,758.44z M462.9,688.89
		c-0.58,0.02-1.16,0.04-1.74,0.06c-3.91,10.02-6.61,20.45-9.44,30.82c-0.69,2.52,1.33,3.42,3.52,3.44
		c4.27,0.05,8.55,0.07,12.82-0.05c2.39-0.07,4.62-1.14,3.86-3.87C469.09,709.11,465.94,699.01,462.9,688.89z"/>
	<path class="st0" d="M640,758.48c-2.95,0.11-4.6-1.81-5.44-4.73c-1.24-4.31-2.68-8.58-3.64-12.95c-1.09-4.98-3.67-7.33-8.96-7.02
		c-5.25,0.31-10.53,0.25-15.79,0.02c-4.85-0.21-7.67,1.61-8.79,6.49c-1.05,4.55-2.66,8.97-3.99,13.46c-1.36,4.58-4.76,5.6-8.73,4.39
		c-4.27-1.3-2.42-4.77-1.65-7.37c7.73-25.98,15.61-51.92,23.37-77.89c1.16-3.89,3.35-5.78,7.6-5.72c4.13,0.06,5.83,2.24,6.89,5.79
		c7.81,26.16,15.69,52.3,23.53,78.46C645.51,755.12,646.1,758.64,640,758.48z M614.6,688.15c-0.54,0.02-1.08,0.05-1.62,0.07
		c-2.04,6.62-4.13,13.22-6.12,19.86c-4.81,16.08-3.97,17.06,12.85,15.17c0.39-0.04,0.78-0.05,1.16-0.1c2.36-0.31,3.68-1.66,3-3.99
		C620.86,708.79,617.7,698.48,614.6,688.15z"/>
	<path class="st3" d="M473.08,352.47c-0.8,0.53-0.9,0.24-0.61-0.52C472.67,352.13,472.88,352.3,473.08,352.47z"/>
	<path d="M663.77,500.65c0.03,0.27,0.05,0.53,0.08,0.8c-0.25-0.08-0.49-0.16-0.75-0.23C663.32,501.03,663.54,500.84,663.77,500.65z"
		/>
	<path class="st3" d="M492.54,323.95c0,0,0.11,0.11,0.11,0.11C492.65,324.06,492.54,323.95,492.54,323.95z"/>
	<path class="st4" d="M608.46,354.48c0,0,0.05-0.05,0.05-0.05S608.46,354.48,608.46,354.48z"/>
	<polygon class="st3" points="630.99,415.12 630.95,415.47 630.59,415.52 	"/>
	<polygon points="416.59,502.15 416.3,502.14 416.26,501.84 	"/>
</g>
</svg>
