<svg width="378" height="493" viewBox="0 0 378 493" fill="none" xmlns="http://www.w3.org/2000/svg">
<path d="M312.401 394.06C310.701 397.02 311.241 399.41 311.231 401.69C311.181 420.23 311.191 438.77 311.191 457.31C311.191 461.26 310.921 464.83 305.541 464.98C301.011 465.11 298.381 463.58 298.551 458.68C298.591 457.51 298.521 456.34 298.521 455.17C298.521 431.17 298.472 407.17 298.572 383.16C298.582 379.87 297.291 375.82 301.751 374.02C306.331 372.18 313.221 373.81 316.061 377.62C325.061 389.65 333.941 401.77 342.851 413.86C348.171 421.09 353.451 428.35 358.791 435.56C359.891 437.05 360.732 438.91 362.762 439.55C364.632 437.57 363.961 435.31 363.971 433.27C364.071 414.15 364.361 395.02 364.091 375.9C363.251 315.25 342.071 262.45 300.401 218.64C272.131 188.92 237.051 171.11 195.521 168.99C159.861 167.18 127.841 178.67 99.3515 199.78C65.3515 224.97 43.1515 258.87 28.3915 298.04C20.2815 319.56 15.8815 341.9 14.2215 364.8C13.6815 372.26 14.7315 373.46 22.0515 373.55C29.4615 373.63 36.9015 373.25 44.2815 373.76C54.3415 374.46 64.0515 376.86 68.0315 387.65C72.0415 398.5 70.8115 408.84 62.1815 417.38C59.8615 419.68 59.4415 421.25 62.4315 423.32C65.8415 425.68 67.1515 429.39 67.7715 433.37C68.7215 439.56 68.9315 445.8 68.9815 452.05C69.0015 454.78 68.8415 457.66 70.4215 460.01C73.1315 464.03 71.4315 464.93 67.4615 465.07C59.4515 465.35 57.8115 463.98 57.2915 456C56.9115 450.16 56.6715 444.31 56.0815 438.49C55.3915 431.57 51.9315 427.79 45.0315 426.89C36.5015 425.78 27.8915 426.39 19.3115 426.52C15.2015 426.58 14.1315 429.32 14.1215 432.84C14.0915 441.23 14.0015 449.62 14.0615 458.01C14.0915 462.43 12.6215 465.01 7.68148 465.05C2.81148 465.09 1.03147 462.71 1.10147 458.21C1.74147 417.86 -1.08854 377.42 4.44146 337.21C8.12146 310.45 16.3215 285.12 29.1515 261.37C33.9915 252.41 38.0815 243.18 41.8215 233.74C64.5215 176.41 87.2815 119.11 110.001 61.7895C117.251 43.4995 127.601 27.4196 143.591 15.4996C176.481 -9.03044 220.601 -3.96044 247.431 27.2796C256.291 37.5896 263.141 49.0295 268.141 61.6995C292.571 123.59 317.011 185.48 341.801 247.22C346.141 258.04 352.551 268.02 357.311 278.7C370.351 308 376.171 338.99 376.801 370.88C377.371 399.75 376.991 428.64 376.961 457.52C376.961 460.51 377.811 464.4 373.751 465.4C369.601 466.43 365.101 466.92 361.921 462.85C359.161 459.32 356.491 455.7 353.901 452.04C340.841 433.56 326.911 415.69 314.621 396.66C314.131 395.88 313.421 395.24 312.401 394.06ZM122.061 58.8996C127.531 56.6996 131.861 52.6295 136.901 49.7295C138.881 48.5895 139.771 46.5696 140.081 44.3796C140.741 39.7696 141.901 35.2095 141.621 30.4895L141.511 30.3796C132.271 37.8796 126.081 47.5796 121.441 58.3796C121.161 59.1396 121.271 59.4396 122.061 58.8996ZM257.491 60.8595L257.441 60.9096C253.861 48.6596 246.091 39.3296 236.941 30.9096C236.941 40.0396 236.721 48.9896 246.931 53.6196C250.761 55.3396 253.991 58.3995 257.491 60.8595ZM279.572 121.95L279.931 121.9L279.981 121.54C278.151 112.08 273.322 103.66 270.632 94.5296C266.662 81.0396 256.601 72.8995 246.061 65.0495C245.021 64.2795 243.791 63.0095 242.411 63.9495C241.071 64.8595 241.741 66.4496 241.951 67.7496C243.681 78.3296 245.451 88.8995 247.201 99.4795C247.641 102.13 248.811 104.26 251.371 105.43C261.331 109.97 270.322 116.18 279.572 121.95ZM65.5715 208.58C80.7915 193.98 96.7915 180.41 115.661 170.64C118.491 169.17 119.801 166.7 120.301 163.63C122.521 149.99 124.791 136.35 127.011 122.71C127.281 121.03 128.021 119 126.391 117.77C124.431 116.3 122.721 118.07 121.081 118.93C111.401 124.05 102.611 130.48 94.0815 137.3C91.0915 139.69 89.2515 142.81 87.9215 146.35C83.6215 157.84 79.1015 169.24 74.9415 180.78C71.6515 189.92 67.1915 198.65 65.2415 208.27L65.2715 208.56L65.5715 208.58ZM312.081 207.64C312.331 207.72 312.572 207.8 312.822 207.87C312.792 207.6 312.771 207.34 312.741 207.07C305.641 185.58 296.971 164.68 289.021 143.51C288.171 141.26 286.572 139.53 284.762 138.02C275.932 130.6 266.601 123.89 256.371 118.52C254.881 117.74 253.261 116.35 251.551 117.76C250.141 118.92 250.811 120.67 251.051 122.17C253.261 135.84 255.561 149.49 257.701 163.17C258.341 167.23 260.551 169.71 264.081 171.6C276.161 178.06 287.241 185.98 297.701 194.84C302.601 199 306.521 204.25 312.081 207.64ZM193.181 126.86C193.181 133.29 193.201 139.71 193.171 146.14C193.151 149.85 194.651 152.01 198.621 152.17C214.141 152.82 229.011 156.45 243.461 162.04C248.231 163.89 249.561 162.73 248.741 157.54C246.591 143.89 244.241 130.26 241.981 116.63C241.471 113.55 240.081 111.25 236.991 110.02C225.321 105.4 213.291 102.49 200.721 101.77C195.091 101.45 192.961 103.9 193.151 109.33C193.351 115.18 193.201 121.02 193.181 126.86ZM184.801 127.55C184.801 121.5 184.881 115.45 184.781 109.4C184.671 102.69 183.601 101.66 176.731 101.87C165.091 102.24 154.061 105.47 143.121 109.18C138.661 110.69 136.551 113.4 135.851 117.97C133.851 131.09 131.551 144.16 129.451 157.26C128.511 163.11 129.601 164.05 135.371 161.81C149.491 156.32 164.021 152.82 179.191 152.18C183.081 152.02 184.831 150.09 184.811 146.28C184.791 140.04 184.811 133.8 184.801 127.55ZM193.231 68.9996C193.231 74.4496 193.251 79.9095 193.221 85.3595C193.201 89.0395 194.721 91.2295 198.641 91.5095C210.341 92.3595 221.791 94.5396 232.941 98.2496C237.141 99.6496 238.901 98.1596 238.181 93.7496C236.381 82.7996 234.601 71.8396 232.801 60.8796C232.441 58.6596 231.521 56.7495 229.461 55.6695C220.051 50.7195 210.141 47.4395 199.451 46.8295C195.341 46.5995 193.231 48.4595 193.241 52.6395C193.241 58.0895 193.241 63.5496 193.231 68.9996ZM184.781 69.2796C184.801 69.2796 184.821 69.2796 184.841 69.2796C184.841 64.0196 184.731 58.7595 184.871 53.5095C185.011 48.4295 182.651 46.4395 177.721 46.8595C167.681 47.7295 158.301 50.7796 149.331 55.2396C146.831 56.4796 145.701 58.6296 145.271 61.2796C143.521 72.0396 141.801 82.8096 139.981 93.5596C139.191 98.2496 140.881 99.9596 145.391 98.3196C156.291 94.3696 167.601 92.5295 179.081 91.5495C183.271 91.1895 184.851 89.0095 184.801 85.0495C184.721 79.7995 184.781 74.5396 184.781 69.2796ZM31.8215 384.34C31.8215 384.3 31.8215 384.26 31.8215 384.22C27.7415 384.22 23.6615 384.21 19.5815 384.22C16.0815 384.23 14.0715 385.85 14.0515 389.49C14.0315 396.49 14.0215 403.48 14.0715 410.48C14.0915 413.38 15.3915 415.5 18.4815 415.59C27.4115 415.86 36.4015 416.53 45.2615 415.26C53.9815 414.01 57.9015 407.81 57.3815 397.63C56.9715 389.54 52.6915 385.13 44.0615 384.4C40.0015 384.06 35.9015 384.34 31.8215 384.34ZM97.6715 120.92C98.2115 121.28 98.7415 121.63 99.2815 121.99C108.201 115.35 117.831 109.95 127.701 104.96C130.231 103.68 130.721 101.08 131.141 98.5296C132.731 88.7296 134.371 78.9395 135.901 69.1395C136.161 67.4795 137.341 65.3095 135.761 64.1695C133.751 62.7095 132.251 64.9995 130.781 66.0395C119.231 74.1995 110.011 84.0095 106.071 98.2095C103.931 105.96 100.521 113.36 97.6715 120.92ZM200.041 9.41954C195.631 8.85954 193.281 10.6695 193.281 15.1995C193.271 20.0695 193.231 24.9396 193.281 29.8096C193.311 32.6596 194.461 34.7696 197.561 35.1296C206.891 36.1996 216.001 38.1295 224.701 41.7895C226.391 42.4995 228.982 42.6696 228.822 40.3396C228.352 33.4496 229.341 25.5296 224.081 20.4296C217.611 14.1596 209.151 10.6795 200.041 9.41954ZM184.822 22.7196C184.822 8.39956 182.912 7.09955 170.012 11.2995C157.372 15.4195 149.041 22.4796 149.161 36.9996C149.201 42.2996 149.591 43.2395 154.501 41.3595C161.631 38.6195 168.911 36.6295 176.481 35.6095C184.701 34.5095 184.752 34.3695 184.822 26.2295C184.832 25.0595 184.822 23.8896 184.822 22.7196Z" fill="#221E1F"/>
<path d="M185.841 313.74C185.841 312.76 185.731 311.77 185.861 310.81C186.951 302.75 185.401 297.33 176.631 293.24C165.681 288.12 162.471 276.75 161.621 265.16C160.921 255.5 162.591 246.08 165.091 236.82C169.931 218.81 177.791 202.05 186.581 185.69C187.841 183.33 188.911 181.34 191.151 185.07C203.891 206.26 215.001 228.08 218.191 253.06C220.441 270.69 215.351 288.81 195.881 296.85C193.771 297.72 192.951 299.01 192.971 301.27C193.051 309.66 193.091 318.06 192.951 326.45C192.901 329.66 194.001 330.29 197.111 329.93C202.751 329.29 205.691 327.88 206.021 320.9C206.821 304.3 215.691 291.95 229.841 283.55C245.981 273.96 263.941 271.81 282.261 271.63C295.211 271.5 295.211 271.57 290.671 283.46C284.741 299.01 277.751 314.02 267.731 327.41C264.821 331.3 261.611 335.05 258.051 338.34C243.041 352.23 228.041 352.32 212.721 338.89C208.941 335.58 197.741 335.2 193.861 338.18C192.371 339.32 192.461 340.87 192.441 342.41C192.391 347.09 192.391 351.78 192.401 356.46C192.411 358.91 192.491 361.19 188.881 361.1C185.551 361.01 185.831 358.83 185.831 356.67C185.821 351.99 185.671 347.3 185.871 342.62C186.001 339.54 184.771 338.17 181.851 337.26C175.461 335.27 170.511 334.87 164.841 340.67C153.061 352.7 138.111 352.84 124.621 342.7C117.341 337.23 111.781 330.2 106.851 322.65C97.7214 308.69 91.1714 293.48 85.1714 277.99C83.9814 274.91 84.0914 273.27 87.9414 273.15C107.441 272.55 126.601 274.11 144.521 282.63C161.781 290.84 171.581 304.43 173.061 323.72C173.341 327.36 181.191 332.26 184.371 330.79C185.871 330.1 185.781 328.57 185.791 327.22C185.821 322.73 185.801 318.24 185.801 313.75C185.821 313.74 185.831 313.74 185.841 313.74Z" fill="#3DA246"/>
<path d="M189.181 475.53C249.051 475.53 308.911 475.52 368.781 475.54C377.311 475.54 378.151 476.45 377.971 484.92C377.821 492.11 376.961 492.82 367.741 492.83C255.221 492.84 142.711 492.84 30.1914 492.84C22.7814 492.84 15.3714 492.89 7.96144 492.81C0.721444 492.73 -0.0385787 491.82 0.00142129 483.95C0.0414213 476.53 0.811418 475.57 7.84142 475.56C39.2414 475.51 70.6314 475.53 102.031 475.53C131.061 475.53 160.121 475.53 189.181 475.53Z" fill="#211D1E"/>
<path d="M142.851 373.62C146.391 373.16 148.841 375.11 150.591 378.69C155.721 389.21 161.001 399.65 166.271 410.1C166.951 411.44 167.301 413.48 169.081 413.54C170.941 413.6 171.201 411.5 171.901 410.19C173.091 407.96 173.881 405.47 175.281 403.39C180.561 395.55 181.661 387.88 175.721 379.74C173.061 376.1 174.071 373.19 179.141 373.7C184.391 374.23 189.491 374.9 194.841 373.83C198.851 373.03 200.032 375.61 198.322 379.28C197.662 380.69 197.141 382.2 196.301 383.5C193.511 387.76 193.881 391.72 196.451 396.04C199.231 400.72 201.391 405.77 203.891 410.63C204.491 411.79 204.801 413.54 206.421 413.56C208.051 413.57 208.391 411.84 208.951 410.67C213.791 400.66 218.571 390.62 223.391 380.61C224.151 379.03 224.831 377.36 225.911 376.01C228.361 372.93 232.021 372.84 234.961 374.29C238.311 375.95 235.711 378.84 234.771 380.87C228.721 393.97 222.651 407.07 216.221 419.99C212.821 426.82 211.171 433.77 211.601 441.39C211.931 447.22 211.661 453.09 211.601 458.94C211.571 462.16 210.702 464.77 206.762 464.9C202.702 465.03 201.191 462.75 201.161 459.06C201.121 453.99 200.841 448.9 201.151 443.85C201.661 435.62 200.222 427.99 195.882 420.9C194.162 418.08 193.061 414.89 191.411 412.02C190.121 409.78 190.151 405.75 186.961 405.88C184.391 405.98 184.242 409.76 182.942 411.86C175.222 424.27 172.901 437.82 174.271 452.19C174.451 454.12 174.281 456.09 174.271 458.04C174.251 461.6 173.822 464.84 169.132 464.9C164.532 464.96 163.741 461.95 163.741 458.26C163.741 451.63 163.591 444.99 163.751 438.37C163.881 433.36 162.791 428.82 160.511 424.33C152.991 409.55 145.671 394.68 138.371 379.79C135.901 374.73 136.701 373.61 142.851 373.62Z" fill="#221E1F"/>
<path d="M136.721 464.87C134.061 464.94 132.451 462.9 131.611 460.05C130.231 455.38 128.831 450.71 127.621 445.99C126.601 441.98 124.241 440.16 120.071 440.26C114.031 440.4 107.991 440.38 101.951 440.28C98.0314 440.21 95.8014 441.98 94.8114 445.74C93.7714 449.7 92.4914 453.59 91.3114 457.51C90.9714 458.63 90.6414 459.75 90.2614 460.86C88.7714 465.21 85.2514 465.58 81.6714 464.65C77.6114 463.6 79.2114 460.33 79.9314 457.88C85.0614 440.49 90.3114 423.14 95.5414 405.79C98.1814 397.02 100.901 388.27 103.491 379.48C104.611 375.66 106.641 373.53 110.961 373.6C115.041 373.67 116.891 375.77 117.951 379.32C125.791 405.66 133.671 431.99 141.561 458.32C142.701 462.18 142.351 464.97 136.721 464.87ZM111.881 395.32C111.301 395.34 110.721 395.36 110.141 395.38C106.231 405.4 103.531 415.83 100.701 426.2C100.011 428.72 102.031 429.62 104.221 429.64C108.491 429.69 112.771 429.71 117.041 429.59C119.431 429.52 121.661 428.45 120.901 425.72C118.071 415.54 114.921 405.44 111.881 395.32Z" fill="#221E1F"/>
<path d="M288.982 464.91C286.032 465.02 284.382 463.1 283.542 460.18C282.302 455.87 280.862 451.6 279.902 447.23C278.812 442.25 276.232 439.9 270.942 440.21C265.692 440.52 260.412 440.46 255.152 440.23C250.302 440.02 247.482 441.84 246.362 446.72C245.312 451.27 243.702 455.69 242.372 460.18C241.012 464.76 237.612 465.78 233.642 464.57C229.372 463.27 231.222 459.8 231.992 457.2C239.722 431.22 247.602 405.28 255.362 379.31C256.522 375.42 258.712 373.53 262.962 373.59C267.092 373.65 268.792 375.83 269.852 379.38C277.662 405.54 285.542 431.68 293.382 457.84C294.492 461.55 295.082 465.07 288.982 464.91ZM263.582 394.58C263.042 394.6 262.502 394.63 261.962 394.65C259.922 401.27 257.832 407.87 255.842 414.51C251.032 430.59 251.872 431.57 268.692 429.68C269.082 429.64 269.472 429.63 269.852 429.58C272.212 429.27 273.532 427.92 272.852 425.59C269.842 415.22 266.682 404.91 263.582 394.58Z" fill="#221E1F"/>
<path d="M122.061 58.8996C121.261 59.4296 121.161 59.1396 121.451 58.3796C121.651 58.5596 121.861 58.7296 122.061 58.8996Z" fill="#010101"/>
<path d="M312.751 207.08C312.781 207.35 312.801 207.61 312.831 207.88C312.581 207.8 312.341 207.72 312.081 207.65C312.301 207.46 312.521 207.27 312.751 207.08Z" fill="black"/>
<path d="M279.971 121.55L279.931 121.9L279.571 121.95L279.971 121.55Z" fill="#010101"/>
<path d="M65.5714 208.58L65.2814 208.57L65.2415 208.27L65.5714 208.58Z" fill="black"/>
</svg>
